<svg width="18" height="18" viewBox="0 0 18 18" fill="none" xmlns="http://www.w3.org/2000/svg">
<g clip-path="url(#clip0_23_355)">
<path d="M0.599609 0.600006H5.39961V5.40001H0.599609V0.600006ZM0.599609 6.60001H5.39961V11.4H0.599609V6.60001ZM6.59961 0.600006H11.3996V5.40001H6.59961V0.600006ZM6.59961 6.60001H11.3996V11.4H6.59961V6.60001Z" fill="#EDEDED"/>
<path d="M12.5996 0.600006H17.3996V5.40001H12.5996V0.600006ZM12.5996 6.60001H17.3996V11.4H12.5996V6.60001ZM18.5996 0.600006H23.3996V5.40001H18.5996V0.600006ZM18.5996 6.60001H23.3996V11.4H18.5996V6.60001Z" fill="#EDEDED"/>
<path d="M0.599609 12.6H5.39961V17.4H0.599609V12.6ZM0.599609 18.6H5.39961V23.4H0.599609V18.6ZM6.59961 12.6H11.3996V17.4H6.59961V12.6ZM6.59961 18.6H11.3996V23.4H6.59961V18.6Z" fill="#EDEDED"/>
<path d="M12.5996 12.6H17.3996V17.4H12.5996V12.6ZM12.5996 18.6H17.3996V23.4H12.5996V18.6ZM18.5996 12.6H23.3996V17.4H18.5996V12.6ZM18.5996 18.6H23.3996V23.4H18.5996V18.6Z" fill="#EDEDED"/>
</g>
<defs>
<clipPath id="clip0_23_355">
<rect width="18" height="18" fill="white"/>
</clipPath>
</defs>
</svg>
