<svg width="24" height="24" viewBox="0 0 24 24" fill="none" xmlns="http://www.w3.org/2000/svg">
<path d="M15.3115 11.7806L19.7295 9.28945L18.1939 6.59665L13.7751 9.08641L15.3115 11.7806ZM6.49393 14.0789L13.9589 9.87409L14.7264 11.2219L7.26241 15.4272L6.49393 14.0789ZM5.58769 14.5901L6.35761 15.937L2.50801 18.1037L1.73809 16.7582L5.58769 14.5901ZM6.62449 15.937C6.68353 16.0421 6.84481 16.067 6.98497 15.9902C7.12465 15.9115 7.18657 15.7622 7.12705 15.6557L6.22705 14.0789C6.16513 13.9718 6.00385 13.9459 5.86513 14.0256C5.72737 14.1043 5.66497 14.257 5.72449 14.364L6.62449 15.937ZM0.945133 16.8005C1.09338 16.7182 1.26093 16.6771 1.43041 16.6814L2.41489 18.4056C2.33569 18.5501 2.21761 18.6763 2.06209 18.7608C1.62817 19.0066 1.08241 18.865 0.843851 18.4478L0.591373 18.0014C0.352333 17.5814 0.509773 17.0462 0.945133 16.8005ZM13.3479 8.56753C13.3757 8.61693 13.4129 8.66037 13.4576 8.69536C13.5022 8.73035 13.5532 8.7562 13.6078 8.77145C13.6624 8.78669 13.7195 8.79103 13.7758 8.78421C13.8321 8.77738 13.8865 8.75954 13.9359 8.73169L17.8027 6.55153C17.8522 6.52392 17.8957 6.48676 17.9307 6.44221C17.9658 6.39766 17.9916 6.3466 18.0067 6.292C18.0219 6.23739 18.026 6.18032 18.0189 6.12411C18.0118 6.06789 17.9937 6.01363 17.9655 5.96449C17.9082 5.8652 17.8139 5.79262 17.7033 5.76258C17.5927 5.73254 17.4747 5.74749 17.3751 5.80417L13.5091 7.98145C13.4598 8.00908 13.4165 8.04624 13.3816 8.09076C13.3467 8.13528 13.3211 8.18628 13.3061 8.24079C13.291 8.29531 13.287 8.35226 13.2942 8.40835C13.3014 8.46444 13.3196 8.51854 13.3479 8.56753ZM12.8059 7.62097C12.8625 7.72055 12.9563 7.79363 13.0667 7.82422C13.1771 7.85481 13.2951 7.84041 13.3949 7.78417L17.2632 5.60449C17.3126 5.57712 17.356 5.5402 17.3909 5.49588C17.4258 5.45156 17.4516 5.40072 17.4666 5.34634C17.4817 5.29195 17.4858 5.23511 17.4786 5.17914C17.4714 5.12317 17.4532 5.06918 17.425 5.02033C17.3971 4.97069 17.3596 4.92707 17.3148 4.89195C17.27 4.85684 17.2187 4.83093 17.1638 4.81572C17.1089 4.80051 17.0516 4.79629 16.9951 4.80332C16.9386 4.81034 16.884 4.82847 16.8346 4.85665L12.9677 7.03441C12.9183 7.06205 12.8749 7.09922 12.84 7.14377C12.8051 7.18831 12.7793 7.23934 12.7643 7.2939C12.7493 7.34846 12.7452 7.40546 12.7523 7.46161C12.7595 7.51775 12.7777 7.57192 12.8059 7.62097ZM16.0738 13.3541C16.1313 13.453 16.2255 13.5252 16.3359 13.5552C16.4463 13.5852 16.564 13.5705 16.6637 13.5144L20.5335 11.3342C20.5828 11.3065 20.6262 11.2693 20.6611 11.2247C20.696 11.1801 20.7217 11.1291 20.7368 11.0745C20.7519 11.0199 20.756 10.9629 20.7489 10.9067C20.7419 10.8506 20.7238 10.7964 20.6957 10.7472C20.6379 10.6486 20.5437 10.5766 20.4335 10.5467C20.3232 10.5167 20.2055 10.5311 20.1058 10.5869L16.2379 12.767C16.1383 12.8231 16.0651 12.9165 16.0343 13.0266C16.0035 13.1367 16.0177 13.2545 16.0738 13.3541ZM15.5333 12.4042C15.5615 12.4537 15.5993 12.4972 15.6444 12.5321C15.6895 12.567 15.741 12.5927 15.796 12.6077C15.8511 12.6226 15.9085 12.6265 15.9651 12.6192C16.0216 12.6119 16.0762 12.5934 16.1256 12.565L19.9925 10.3872C20.0917 10.3307 20.1644 10.2372 20.1949 10.1272C20.2254 10.0173 20.2111 9.89966 20.1552 9.80017C20.127 9.75081 20.0893 9.70749 20.0443 9.67269C19.9993 9.6379 19.9479 9.6123 19.8931 9.59737C19.8382 9.58244 19.7809 9.57846 19.7245 9.58567C19.6681 9.59287 19.6137 9.61112 19.5643 9.63937L15.6979 11.8171C15.6486 11.8449 15.6052 11.882 15.5702 11.9265C15.5352 11.9711 15.5093 12.022 15.494 12.0765C15.4787 12.1311 15.4743 12.188 15.4811 12.2443C15.4878 12.3005 15.5055 12.3548 15.5333 12.4042ZM22.0224 16.2821H15.2045V17.0659H22.0224V16.2821ZM13.7155 17.917C13.737 17.7879 13.8035 17.6707 13.9033 17.586C14.003 17.5014 14.1295 17.4549 14.2603 17.4547H22.9647C23.0955 17.4547 23.2221 17.5012 23.3219 17.5858C23.4217 17.6705 23.4882 17.7878 23.5095 17.917H23.5195V19.2005H13.7055V17.917H13.7155Z" fill="#EDEDED"/>
</svg>
