<svg width="24" height="24" viewBox="0 0 24 24" fill="none" xmlns="http://www.w3.org/2000/svg">
<path d="M19.5 2.25C19.5 1.83562 19.1644 1.5 18.75 1.5H15.75C15.3356 1.5 15 1.83562 15 2.25V4.5H19.5V2.25ZM2.99578 7.49953C2.87812 11.8988 0.162188 12.8541 0 18.9375V21C0 21.8283 0.671719 22.5 1.5 22.5H6C6.82828 22.5 7.5 21.8283 7.5 21V13.5H9V6H4.4925C3.66609 6 3.01828 6.67359 2.99578 7.49953ZM21.0042 7.49953C20.9817 6.67359 20.3339 6 19.5075 6H15V13.5H16.5V21C16.5 21.8283 17.1717 22.5 18 22.5H22.5C23.3283 22.5 24 21.8283 24 21V18.9375C23.8378 12.8541 21.1219 11.8988 21.0042 7.49953ZM8.25 1.5H5.25C4.83563 1.5 4.5 1.83562 4.5 2.25V4.5H9V2.25C9 1.83562 8.66438 1.5 8.25 1.5ZM10.5 13.5H13.5V6H10.5V13.5Z" fill="#EDEDED"/>
</svg>
