<svg width="42" height="42" viewBox="0 0 42 42" fill="none" xmlns="http://www.w3.org/2000/svg">
<g clip-path="url(#clip0_42_126)">
<path d="M0 34.125C0 35.1693 0.414843 36.1708 1.15327 36.9092C1.89169 37.6477 2.89321 38.0625 3.9375 38.0625H38.0625C39.1068 38.0625 40.1083 37.6477 40.8467 36.9092C41.5852 36.1708 42 35.1693 42 34.125V15.75C42 14.7057 41.5852 13.7042 40.8467 12.9658C40.1083 12.2273 39.1068 11.8125 38.0625 11.8125H3.9375C2.89321 11.8125 1.89169 12.2273 1.15327 12.9658C0.414843 13.7042 0 14.7057 0 15.75L0 34.125ZM5.25 7.875C5.25 8.2231 5.38828 8.55694 5.63442 8.80308C5.88056 9.04922 6.2144 9.1875 6.5625 9.1875H35.4375C35.7856 9.1875 36.1194 9.04922 36.3656 8.80308C36.6117 8.55694 36.75 8.2231 36.75 7.875C36.75 7.5269 36.6117 7.19306 36.3656 6.94692C36.1194 6.70078 35.7856 6.5625 35.4375 6.5625H6.5625C6.2144 6.5625 5.88056 6.70078 5.63442 6.94692C5.38828 7.19306 5.25 7.5269 5.25 7.875ZM10.5 2.625C10.5 2.9731 10.6383 3.30694 10.8844 3.55308C11.1306 3.79922 11.4644 3.9375 11.8125 3.9375H30.1875C30.5356 3.9375 30.8694 3.79922 31.1156 3.55308C31.3617 3.30694 31.5 2.9731 31.5 2.625C31.5 2.2769 31.3617 1.94306 31.1156 1.69692C30.8694 1.45078 30.5356 1.3125 30.1875 1.3125H11.8125C11.4644 1.3125 11.1306 1.45078 10.8844 1.69692C10.6383 1.94306 10.5 2.2769 10.5 2.625Z" fill="url(#paint0_linear_42_126)"/>
</g>
<defs>
<linearGradient id="paint0_linear_42_126" x1="1.56462e-07" y1="19.6875" x2="42" y2="19.6875" gradientUnits="userSpaceOnUse">
<stop stop-color="#BA9F33"/>
<stop offset="1" stop-color="#E1CE83"/>
</linearGradient>
<clipPath id="clip0_42_126">
<rect width="42" height="42" fill="white"/>
</clipPath>
</defs>
</svg>
