<svg width="34" height="34" viewBox="0 0 34 34" fill="none" xmlns="http://www.w3.org/2000/svg">
<g clip-path="url(#clip0_43_2)">
<path d="M29.75 2.125C30.3136 2.125 30.8541 2.34888 31.2526 2.7474C31.6511 3.14591 31.875 3.68641 31.875 4.25V29.75C31.875 30.3136 31.6511 30.8541 31.2526 31.2526C30.8541 31.6511 30.3136 31.875 29.75 31.875H4.25C3.68641 31.875 3.14591 31.6511 2.7474 31.2526C2.34888 30.8541 2.125 30.3136 2.125 29.75V4.25C2.125 3.68641 2.34888 3.14591 2.7474 2.7474C3.14591 2.34888 3.68641 2.125 4.25 2.125H29.75ZM4.25 0C3.12283 0 2.04183 0.447767 1.2448 1.2448C0.447767 2.04183 0 3.12283 0 4.25L0 29.75C0 30.8772 0.447767 31.9582 1.2448 32.7552C2.04183 33.5522 3.12283 34 4.25 34H29.75C30.8772 34 31.9582 33.5522 32.7552 32.7552C33.5522 31.9582 34 30.8772 34 29.75V4.25C34 3.12283 33.5522 2.04183 32.7552 1.2448C31.9582 0.447767 30.8772 0 29.75 0L4.25 0Z" fill="url(#paint0_linear_43_2)"/>
<path d="M12.75 24.4375C12.75 24.1557 12.8619 23.8855 13.0612 23.6862C13.2605 23.4869 13.5307 23.375 13.8125 23.375H20.1875C20.4693 23.375 20.7395 23.4869 20.9388 23.6862C21.1381 23.8855 21.25 24.1557 21.25 24.4375C21.25 24.7193 21.1381 24.9895 20.9388 25.1888C20.7395 25.3881 20.4693 25.5 20.1875 25.5H13.8125C13.5307 25.5 13.2605 25.3881 13.0612 25.1888C12.8619 24.9895 12.75 24.7193 12.75 24.4375ZM8.5 18.0625C8.5 17.7807 8.61194 17.5105 8.8112 17.3112C9.01046 17.1119 9.28071 17 9.5625 17H24.4375C24.7193 17 24.9895 17.1119 25.1888 17.3112C25.3881 17.5105 25.5 17.7807 25.5 18.0625C25.5 18.3443 25.3881 18.6145 25.1888 18.8138C24.9895 19.0131 24.7193 19.125 24.4375 19.125H9.5625C9.28071 19.125 9.01046 19.0131 8.8112 18.8138C8.61194 18.6145 8.5 18.3443 8.5 18.0625ZM4.25 11.6875C4.25 11.4057 4.36194 11.1355 4.5612 10.9362C4.76046 10.7369 5.03071 10.625 5.3125 10.625H28.6875C28.9693 10.625 29.2395 10.7369 29.4388 10.9362C29.6381 11.1355 29.75 11.4057 29.75 11.6875C29.75 11.9693 29.6381 12.2395 29.4388 12.4388C29.2395 12.6381 28.9693 12.75 28.6875 12.75H5.3125C5.03071 12.75 4.76046 12.6381 4.5612 12.4388C4.36194 12.2395 4.25 11.9693 4.25 11.6875Z" fill="url(#paint1_linear_43_2)"/>
</g>
<defs>
<linearGradient id="paint0_linear_43_2" x1="1.2666e-07" y1="17" x2="34" y2="17" gradientUnits="userSpaceOnUse">
<stop stop-color="#BA9F33"/>
<stop offset="1" stop-color="#E1CE83"/>
</linearGradient>
<linearGradient id="paint1_linear_43_2" x1="4.25" y1="18.0625" x2="29.75" y2="18.0625" gradientUnits="userSpaceOnUse">
<stop stop-color="#BA9F33"/>
<stop offset="1" stop-color="#E1CE83"/>
</linearGradient>
<clipPath id="clip0_43_2">
<rect width="34" height="34" fill="white"/>
</clipPath>
</defs>
</svg>
