<svg width="32" height="32" viewBox="0 0 32 32" fill="none" xmlns="http://www.w3.org/2000/svg">
<g clip-path="url(#clip0_2_187)">
<path d="M29.1868 7.20942C27.6332 7.20942 26.3736 8.46896 26.3736 10.0226C26.3736 10.4124 26.453 10.7836 26.5963 11.1212L20.7033 17.0142C20.3658 16.8709 19.9945 16.7915 19.6047 16.7915C19.2148 16.7915 18.8436 16.8709 18.5061 17.0142L14.9859 13.494C15.1292 13.1565 15.2085 12.7852 15.2085 12.3954C15.2085 10.8417 13.949 9.58221 12.3953 9.58221C10.8417 9.58221 9.58215 10.8417 9.58215 12.3954C9.58215 12.7852 9.66148 13.1564 9.80481 13.4939L3.91175 19.3869C3.57423 19.2436 3.20296 19.1642 2.81313 19.1642C1.25947 19.1642 -6.10352e-05 20.4237 -6.10352e-05 21.9774C-6.10352e-05 23.531 1.25947 24.7906 2.81313 24.7906C4.36678 24.7906 5.62631 23.531 5.62631 21.9774C5.62631 21.5876 5.54698 21.2164 5.40365 20.8788L11.2967 14.9858C11.6342 15.1292 12.0055 15.2085 12.3953 15.2085C12.7851 15.2085 13.1564 15.1292 13.4939 14.9858L17.0142 18.5061C16.8708 18.8436 16.7915 19.2149 16.7915 19.6047C16.7915 21.1583 18.051 22.4179 19.6047 22.4179C21.1583 22.4179 22.4179 21.1583 22.4179 19.6047C22.4179 19.2149 22.3385 18.8436 22.1952 18.5061L28.0882 12.6131C28.4257 12.7564 28.797 12.8357 29.1868 12.8357C30.7405 12.8357 32 11.5762 32 10.0225C32 8.46889 30.7405 7.20942 29.1868 7.20942Z" fill="#EDEDED"/>
</g>
<defs>
<clipPath id="clip0_2_187">
<rect width="32" height="32" fill="white"/>
</clipPath>
</defs>
</svg>
