<svg width="24" height="24" viewBox="0 0 24 24" fill="none" xmlns="http://www.w3.org/2000/svg">
<path d="M22.8723 7.59881L12.3723 1.59881C12.259 1.53406 12.1307 1.5 12.0002 1.5C11.8697 1.5 11.7414 1.53406 11.6281 1.59881L1.1281 7.59881C1.01174 7.66526 0.915304 7.76166 0.848823 7.878C0.782342 7.99434 0.748242 8.12636 0.75007 8.26034C0.751898 8.39432 0.789586 8.52537 0.859217 8.63985C0.928847 8.75433 1.02788 8.84807 1.14601 8.91131L11.646 14.5363C11.7549 14.5947 11.8766 14.6252 12.0002 14.6252C12.1238 14.6252 12.2454 14.5947 12.3544 14.5363L22.8544 8.91131C22.9725 8.84807 23.0715 8.75433 23.1412 8.63985C23.2108 8.52537 23.2485 8.39432 23.2503 8.26034C23.2521 8.12636 23.218 7.99434 23.1516 7.878C23.0851 7.76166 22.9886 7.66526 22.8723 7.59881ZM12.0002 13.0242L3.0489 8.22881L12.0002 3.11381L20.9515 8.22881L12.0002 13.0242Z" fill="#FF2E60"/>
<path d="M12.3615 18.4697L22.5 12.8935V11.1815L12 16.9566L1.5 11.1815V12.8935L11.6385 18.4697C11.7493 18.5306 11.8736 18.5625 12 18.5625C12.1264 18.5625 12.2507 18.5306 12.3615 18.4697Z" fill="#FF2E60"/>
<path d="M1.5 17L11.6471 22.4118C11.7557 22.4697 11.8769 22.5 12 22.5C12.1231 22.5 12.2443 22.4697 12.3529 22.4118L22.5 17V15.3L12 20.9L1.5 15.3V17Z" fill="#FF2E60"/>
</svg>
