<svg width="32" height="32" viewBox="0 0 32 32" fill="none" xmlns="http://www.w3.org/2000/svg">
<g clip-path="url(#clip0_2_162)">
<path d="M31.7848 1.34434C31.58 1.12187 31.2683 1.03174 30.9768 1.1094L5.37866 7.93782C5.09762 8.01277 4.87809 8.23199 4.80259 8.51291C4.72721 8.79374 4.80737 9.09343 5.01291 9.29908L5.7865 10.0729L2.62067 13.2388C2.30297 13.5566 2.30297 14.0716 2.62067 14.3893C2.77958 14.5481 2.98783 14.6275 3.19598 14.6275C3.40413 14.6275 3.61239 14.5481 3.77129 14.3893L6.937 11.2236L8.57041 12.8574L4.24497 17.1829C3.92727 17.5007 3.92727 18.0157 4.24497 18.3334C4.40387 18.4922 4.61213 18.5716 4.82027 18.5716C5.02842 18.5716 5.23668 18.4922 5.39558 18.3334L9.72081 14.0082L9.89468 14.182V17.1014L2.39279 24.6033C2.07509 24.9211 2.07509 25.4361 2.39279 25.7538C2.55169 25.9126 2.75995 25.992 2.96809 25.992C3.17624 25.992 3.3845 25.9126 3.5434 25.7538L9.89479 19.4024V22.6733L5.33148 27.2268C5.01345 27.5442 5.01291 28.0592 5.33028 28.3772C5.48919 28.5364 5.69766 28.6161 5.90613 28.6161C6.11407 28.6161 6.322 28.5368 6.48079 28.3784L10.1709 24.6961C10.32 24.8275 10.5115 24.901 10.7089 24.901C10.8312 24.901 10.9554 24.8732 11.0722 24.8148L15.5648 22.5679L11.0421 27.0906C10.7244 27.4084 10.7244 27.9234 11.0421 28.2411C11.2011 28.3999 11.4093 28.4793 11.6175 28.4793C11.8256 28.4793 12.0339 28.3998 12.1928 28.2411L18.0722 22.3616L19.7056 23.9955L16.3583 27.3428C16.0406 27.6606 16.0406 28.1756 16.3583 28.4933C16.5172 28.6521 16.7255 28.7315 16.9336 28.7315C17.1418 28.7315 17.35 28.652 17.5089 28.4933L20.856 25.1462L22.0789 26.3694C22.2331 26.5237 22.4407 26.6077 22.6542 26.6077C22.7136 26.6077 22.7735 26.6012 22.8327 26.5878C23.1049 26.5267 23.3266 26.3303 23.4204 26.0676L31.9533 2.16869C32.0541 1.8844 31.9897 1.56681 31.7848 1.34434ZM25.5549 4.23975L10.8397 12.8263L7.16088 9.14636L25.5549 4.23975ZM14.3438 18.6327L16.161 20.4506L12.5267 22.2681L14.3438 18.6327ZM13.5766 16.6545C13.501 16.7227 13.4387 16.8044 13.3933 16.8955L11.5215 20.6404V14.3121L24.7573 6.58882L13.5766 16.6545ZM22.3198 24.3099L15.3023 17.2902L29.3376 4.65475L22.3198 24.3099Z" fill="#EDEDED"/>
<path d="M2.96657 19.9184C2.96657 19.7046 2.8798 19.4943 2.72794 19.3434C2.57718 19.1917 2.36794 19.1049 2.15307 19.1049C1.93939 19.1049 1.72897 19.1917 1.5782 19.3434C1.42634 19.4943 1.33957 19.7046 1.33957 19.9184C1.33957 20.1331 1.42634 20.3424 1.5782 20.4933C1.72897 20.645 1.93939 20.7319 2.15307 20.7319C2.36794 20.7319 2.57718 20.645 2.72794 20.4933C2.8798 20.3424 2.96657 20.1331 2.96657 19.9184Z" fill="#EDEDED"/>
<path d="M9.79782 29.1781C9.58294 29.1781 9.37371 29.265 9.22294 29.4157C9.07109 29.5675 8.98431 29.778 8.98431 29.9916C8.98431 30.2054 9.07109 30.4147 9.22294 30.5666C9.37371 30.7184 9.58294 30.8051 9.79782 30.8051C10.0115 30.8051 10.2219 30.7184 10.3727 30.5666C10.5245 30.4148 10.6113 30.2054 10.6113 29.9916C10.6113 29.778 10.5245 29.5676 10.3727 29.4157C10.2219 29.265 10.0126 29.1781 9.79782 29.1781Z" fill="#EDEDED"/>
<path d="M15.2732 28.7639C15.0595 28.7639 14.8503 28.8507 14.6983 29.0025C14.5466 29.1543 14.4597 29.3637 14.4597 29.5774C14.4597 29.7921 14.5466 30.0015 14.6983 30.1534C14.8491 30.3042 15.0595 30.3909 15.2732 30.3909C15.4881 30.3909 15.6973 30.3041 15.8493 30.1534C16.0001 30.0016 16.0867 29.7922 16.0867 29.5774C16.0867 29.3637 15.9999 29.1544 15.8493 29.0025C15.6973 28.8506 15.488 28.7639 15.2732 28.7639Z" fill="#EDEDED"/>
<path d="M20.6021 27.6704C20.3884 27.6704 20.1781 27.7583 20.0272 27.9091C19.8753 28.0608 19.7886 28.2703 19.7886 28.4839C19.7886 28.6987 19.8755 28.908 20.0272 29.0599C20.1791 29.2118 20.3884 29.2985 20.6021 29.2985C20.8159 29.2985 21.0251 29.2118 21.1771 29.0599C21.3289 28.9082 21.4156 28.6987 21.4156 28.4839C21.4156 28.2703 21.3288 28.0609 21.1771 27.9091C21.0263 27.7583 20.8159 27.6704 20.6021 27.6704Z" fill="#EDEDED"/>
<path d="M3.60424 29.2909C3.39056 29.2909 3.18025 29.3778 3.02937 29.5285C2.87762 29.6792 2.79074 29.8897 2.79074 30.1033C2.79074 30.3181 2.87762 30.5275 3.02937 30.6793C3.18025 30.8301 3.39056 30.9178 3.60424 30.9178C3.81901 30.9178 4.02835 30.83 4.18031 30.6793C4.33108 30.5275 4.41774 30.3181 4.41774 30.1033C4.41774 29.8897 4.33097 29.6792 4.18031 29.5285C4.02846 29.3778 3.81912 29.2909 3.60424 29.2909Z" fill="#EDEDED"/>
<path d="M1.627 16.2586C1.627 16.045 1.54023 15.8356 1.38838 15.6838C1.23761 15.5319 1.02827 15.4451 0.813501 15.4451C0.598629 15.4451 0.389396 15.5319 0.238627 15.6838C0.0867735 15.8345 0 16.0438 0 16.2586C0 16.4734 0.0867735 16.6827 0.238627 16.8335C0.389396 16.9854 0.599822 17.0721 0.813501 17.0721C1.02718 17.0721 1.23641 16.9854 1.38838 16.8335C1.54023 16.6829 1.627 16.4723 1.627 16.2586Z" fill="#EDEDED"/>
<path d="M2.96874 10.7268C3.18242 10.7268 3.39166 10.6401 3.54362 10.4882C3.69439 10.3374 3.78225 10.127 3.78225 9.91333C3.78225 9.69965 3.69428 9.48922 3.54362 9.33845C3.39176 9.1866 3.18242 9.09983 2.96874 9.09983C2.75398 9.09983 2.54464 9.1866 2.39268 9.33845C2.24191 9.48922 2.15524 9.69965 2.15524 9.91333C2.15524 10.127 2.24202 10.3374 2.39268 10.4882C2.54464 10.6402 2.75398 10.7268 2.96874 10.7268Z" fill="#EDEDED"/>
</g>
<defs>
<clipPath id="clip0_2_162">
<rect width="32" height="32" fill="white"/>
</clipPath>
</defs>
</svg>
