<svg width="30" height="30" viewBox="0 0 30 30" fill="none" xmlns="http://www.w3.org/2000/svg">
<path d="M15 2.20313C14.8601 2.20313 14.7466 2.08961 14.7466 1.94972V0.253408C14.7466 0.113527 14.8601 0 15 0C15.1399 0 15.2534 0.113527 15.2534 0.253408V1.94972C15.2534 2.08961 15.1399 2.20313 15 2.20313Z" fill="url(#paint0_linear_2_34)"/>
<path d="M15 30C14.8601 30 14.7466 29.8865 14.7466 29.7466V28.0505C14.7466 27.9106 14.8601 27.7971 15 27.7971C15.1399 27.7971 15.2534 27.9106 15.2534 28.0505V29.7466C15.2534 29.8865 15.1399 30 15 30Z" fill="url(#paint1_linear_2_34)"/>
<path d="M9.61151 2.24444C9.51192 2.24444 9.41765 2.18539 9.37736 2.08783L8.67694 0.397088C8.62347 0.26785 8.6848 0.119606 8.81404 0.0658836C8.94378 0.0124145 9.09152 0.0739927 9.14524 0.202978L9.84566 1.89372C9.89913 2.02296 9.8378 2.1712 9.70857 2.22492C9.67664 2.2381 9.64369 2.24444 9.61151 2.24444Z" fill="url(#paint2_linear_2_34)"/>
<path d="M21.0889 29.9534C20.9893 29.9534 20.895 29.8943 20.8547 29.7968L20.1543 28.106C20.1008 27.9768 20.1622 27.8285 20.2914 27.7748C20.4209 27.7213 20.5689 27.7827 20.6226 27.9119L21.323 29.6026C21.3765 29.7319 21.3152 29.8801 21.1859 29.9338C21.154 29.947 21.1213 29.9534 21.0889 29.9534Z" fill="url(#paint3_linear_2_34)"/>
<path d="M5.77188 6.02529C5.70701 6.02529 5.64214 6.00046 5.59272 5.95104L4.39334 4.75166C4.29426 4.65258 4.29426 4.49243 4.39334 4.39334C4.49243 4.29426 4.65258 4.29426 4.75166 4.39334L5.95104 5.59272C6.05013 5.69181 6.05013 5.85196 5.95104 5.95104C5.90163 6.00071 5.83676 6.02529 5.77188 6.02529Z" fill="url(#paint4_linear_2_34)"/>
<path d="M25.4272 25.6807C25.3624 25.6807 25.2975 25.6558 25.2481 25.6064L24.0487 24.407C23.9496 24.3079 23.9496 24.1478 24.0487 24.0487C24.1478 23.9496 24.3079 23.9496 24.407 24.0487L25.6064 25.2481C25.7055 25.3472 25.7055 25.5073 25.6064 25.6064C25.557 25.6561 25.4921 25.6807 25.4272 25.6807Z" fill="url(#paint5_linear_2_34)"/>
<path d="M1.99077 9.86493C1.95859 9.86493 1.92564 9.85859 1.89397 9.84542L0.203226 9.145C0.0739874 9.09153 0.0126626 8.94328 0.0661317 8.81379C0.119601 8.68455 0.267338 8.62323 0.397336 8.6767L2.08808 9.37712C2.21731 9.43084 2.27864 9.57883 2.22517 9.70832C2.18437 9.80588 2.0901 9.86493 1.99077 9.86493Z" fill="url(#paint6_linear_2_34)"/>
<path d="M29.6997 21.3423C29.6675 21.3423 29.6346 21.336 29.6029 21.3228L27.9121 20.6224C27.7829 20.5689 27.7216 20.4207 27.7751 20.2912C27.8285 20.1619 27.9763 20.1003 28.1063 20.1541L29.797 20.8545C29.9262 20.9082 29.9876 21.0562 29.9341 21.1857C29.8935 21.2833 29.7993 21.3423 29.6997 21.3423Z" fill="url(#paint7_linear_2_34)"/>
<path d="M1.94972 15.2534H0.253408C0.113527 15.2534 0 15.1399 0 15C0 14.8601 0.113527 14.7466 0.253408 14.7466H1.94947C2.08935 14.7466 2.20288 14.8601 2.20288 15C2.20313 15.1399 2.08961 15.2534 1.94972 15.2534Z" fill="url(#paint8_linear_2_34)"/>
<path d="M29.7463 15.2534H28.0503C27.9104 15.2534 27.7969 15.1399 27.7969 15C27.7969 14.8601 27.9104 14.7466 28.0503 14.7466H29.7463C29.8862 14.7466 29.9998 14.8601 29.9998 15C29.9998 15.1399 29.8865 15.2534 29.7463 15.2534Z" fill="url(#paint9_linear_2_34)"/>
<path d="M0.300037 21.3423C0.200447 21.3423 0.106179 21.2833 0.0658876 21.1857C0.0124184 21.0565 0.0737432 20.9082 0.202981 20.8545L1.89372 20.1541C2.02321 20.1003 2.1712 20.1619 2.22493 20.2912C2.2784 20.4204 2.21707 20.5686 2.08783 20.6224L0.397092 21.3228C0.365163 21.336 0.332473 21.3423 0.300037 21.3423Z" fill="url(#paint10_linear_2_34)"/>
<path d="M28.0092 9.86493C27.9096 9.86493 27.8154 9.80588 27.7751 9.70832C27.7216 9.57908 27.7829 9.43084 27.9122 9.37712L29.6029 8.6767C29.7324 8.62323 29.8804 8.68455 29.9341 8.81379C29.9876 8.94303 29.9263 9.09127 29.797 9.145L28.1063 9.84542C28.0744 9.85859 28.0414 9.86493 28.0092 9.86493Z" fill="url(#paint11_linear_2_34)"/>
<path d="M4.5725 25.6807C4.50763 25.6807 4.44276 25.6558 4.39334 25.6064C4.29426 25.5073 4.29426 25.3472 4.39334 25.2481L5.59272 24.0487C5.69181 23.9496 5.85221 23.9496 5.95104 24.0487C6.04987 24.1478 6.05013 24.3079 5.95104 24.407L4.75166 25.6064C4.70225 25.6561 4.63738 25.6807 4.5725 25.6807Z" fill="url(#paint12_linear_2_34)"/>
<path d="M24.2279 6.02529C24.163 6.02529 24.0981 6.00046 24.0487 5.95104C23.9496 5.85196 23.9496 5.69181 24.0487 5.59272L25.2481 4.39334C25.3472 4.29426 25.5073 4.29426 25.6064 4.39334C25.7055 4.49243 25.7055 4.65258 25.6064 4.75166L24.407 5.95104C24.3576 6.00071 24.2927 6.02529 24.2279 6.02529Z" fill="url(#paint13_linear_2_34)"/>
<path d="M8.91084 29.9534C8.8784 29.9534 8.84571 29.947 8.81404 29.9338C8.6848 29.8804 8.62347 29.7321 8.67694 29.6026L9.37736 27.9119C9.43083 27.7827 9.57857 27.7213 9.70857 27.7748C9.8378 27.8283 9.89913 27.9765 9.84566 28.106L9.14524 29.7968C9.10469 29.8943 9.01043 29.9534 8.91084 29.9534Z" fill="url(#paint14_linear_2_34)"/>
<path d="M20.3885 2.24444C20.3563 2.24444 20.3233 2.2381 20.2917 2.22492C20.1624 2.17145 20.1011 2.02321 20.1546 1.89372L20.855 0.202978C20.9085 0.0739927 21.0565 0.0124145 21.1862 0.0658836C21.3154 0.119353 21.3768 0.267597 21.3233 0.397088L20.6229 2.08783C20.5821 2.18539 20.4878 2.24444 20.3885 2.24444Z" fill="url(#paint15_linear_2_34)"/>
<path d="M15 22.3967C14.8943 22.3967 14.7993 22.3308 14.7625 22.2318L13.4567 18.7256L10.0542 20.2815C9.95792 20.3254 9.84414 20.3051 9.76964 20.2301C9.69488 20.1551 9.67436 20.0418 9.7182 19.9455L11.2741 16.543L7.76797 15.2374C7.66888 15.2004 7.603 15.1057 7.603 15C7.603 14.8943 7.66888 14.7993 7.76797 14.7625L11.2741 13.4567L9.7182 10.0542C9.67436 9.95792 9.69463 9.84439 9.76964 9.76964C9.84389 9.69488 9.95767 9.67436 10.0542 9.7182L13.4567 11.2741L14.7625 7.76797C14.7995 7.66888 14.8943 7.603 15 7.603C15.1057 7.603 15.2007 7.66888 15.2374 7.76797L16.5432 11.2741L19.9458 9.7182C20.0423 9.67436 20.1558 9.69488 20.2303 9.76964C20.3051 9.84439 20.3256 9.95792 20.2818 10.0542L18.7259 13.4567L22.232 14.7625C22.3311 14.7995 22.397 14.8943 22.397 15C22.397 15.1057 22.3311 15.2007 22.232 15.2374L18.7259 16.5432L20.2818 19.9458C20.3256 20.0421 20.3053 20.1556 20.2303 20.2303C20.1556 20.3051 20.0418 20.3251 19.9458 20.2818L16.5432 18.7259L15.2374 22.2318C15.2004 22.3308 15.1057 22.3967 15 22.3967ZM13.5989 18.1286C13.6318 18.1286 13.6648 18.1349 13.6959 18.1478C13.7608 18.1747 13.812 18.2274 13.8363 18.2935L14.9997 21.4173L16.1631 18.2935C16.1877 18.2276 16.2386 18.1749 16.3035 18.1478C16.3686 18.121 16.4419 18.1225 16.506 18.1514L19.5378 19.5378L18.1516 16.5062C18.1225 16.4421 18.121 16.3689 18.1481 16.3038C18.1749 16.2389 18.2276 16.1877 18.2938 16.1634L21.4176 15L18.2935 13.8366C18.2276 13.812 18.1749 13.7611 18.1478 13.6962C18.121 13.6311 18.1222 13.5578 18.1514 13.4937L19.5375 10.4622L16.506 11.8483C16.4419 11.8772 16.3684 11.8788 16.3035 11.8519C16.2386 11.825 16.1875 11.7723 16.1631 11.7062L14.9997 8.58242L13.8363 11.7062C13.8118 11.7721 13.7608 11.8248 13.6959 11.8519C13.6311 11.879 13.5578 11.8775 13.4935 11.8483L10.4619 10.4622L11.8481 13.4937C11.8772 13.5578 11.8788 13.6311 11.8516 13.6962C11.8248 13.7611 11.7721 13.8123 11.7059 13.8366L8.58217 15L11.7059 16.1634C11.7718 16.188 11.8245 16.2389 11.8516 16.3038C11.8788 16.3689 11.8772 16.4421 11.8481 16.5062L10.4619 19.5378L13.4935 18.1516C13.5272 18.1364 13.5629 18.1286 13.5989 18.1286Z" fill="url(#paint16_linear_2_34)"/>
<defs>
<linearGradient id="paint0_linear_2_34" x1="14.7466" y1="1.10157" x2="15.2534" y2="1.10157" gradientUnits="userSpaceOnUse">
<stop stop-color="#BA9F33"/>
<stop offset="1" stop-color="#E1CE83"/>
</linearGradient>
<linearGradient id="paint1_linear_2_34" x1="14.7466" y1="28.8986" x2="15.2534" y2="28.8986" gradientUnits="userSpaceOnUse">
<stop stop-color="#BA9F33"/>
<stop offset="1" stop-color="#E1CE83"/>
</linearGradient>
<linearGradient id="paint2_linear_2_34" x1="8.65762" y1="1.14552" x2="9.86498" y2="1.14552" gradientUnits="userSpaceOnUse">
<stop stop-color="#BA9F33"/>
<stop offset="1" stop-color="#E1CE83"/>
</linearGradient>
<linearGradient id="paint3_linear_2_34" x1="20.135" y1="28.8544" x2="21.3423" y2="28.8544" gradientUnits="userSpaceOnUse">
<stop stop-color="#BA9F33"/>
<stop offset="1" stop-color="#E1CE83"/>
</linearGradient>
<linearGradient id="paint4_linear_2_34" x1="4.31903" y1="5.17216" x2="6.02536" y2="5.17216" gradientUnits="userSpaceOnUse">
<stop stop-color="#BA9F33"/>
<stop offset="1" stop-color="#E1CE83"/>
</linearGradient>
<linearGradient id="paint5_linear_2_34" x1="23.9744" y1="24.8275" x2="25.6807" y2="24.8275" gradientUnits="userSpaceOnUse">
<stop stop-color="#BA9F33"/>
<stop offset="1" stop-color="#E1CE83"/>
</linearGradient>
<linearGradient id="paint6_linear_2_34" x1="0.046814" y1="9.26115" x2="2.24449" y2="9.26115" gradientUnits="userSpaceOnUse">
<stop stop-color="#BA9F33"/>
<stop offset="1" stop-color="#E1CE83"/>
</linearGradient>
<linearGradient id="paint7_linear_2_34" x1="27.7557" y1="20.7385" x2="29.9534" y2="20.7385" gradientUnits="userSpaceOnUse">
<stop stop-color="#BA9F33"/>
<stop offset="1" stop-color="#E1CE83"/>
</linearGradient>
<linearGradient id="paint8_linear_2_34" x1="8.20637e-09" y1="15" x2="2.20288" y2="15" gradientUnits="userSpaceOnUse">
<stop stop-color="#BA9F33"/>
<stop offset="1" stop-color="#E1CE83"/>
</linearGradient>
<linearGradient id="paint9_linear_2_34" x1="27.7969" y1="15" x2="29.9998" y2="15" gradientUnits="userSpaceOnUse">
<stop stop-color="#BA9F33"/>
<stop offset="1" stop-color="#E1CE83"/>
</linearGradient>
<linearGradient id="paint10_linear_2_34" x1="0.0465698" y1="20.7385" x2="2.24424" y2="20.7385" gradientUnits="userSpaceOnUse">
<stop stop-color="#BA9F33"/>
<stop offset="1" stop-color="#E1CE83"/>
</linearGradient>
<linearGradient id="paint11_linear_2_34" x1="27.7558" y1="9.26115" x2="29.9534" y2="9.26115" gradientUnits="userSpaceOnUse">
<stop stop-color="#BA9F33"/>
<stop offset="1" stop-color="#E1CE83"/>
</linearGradient>
<linearGradient id="paint12_linear_2_34" x1="4.31903" y1="24.8275" x2="6.02526" y2="24.8275" gradientUnits="userSpaceOnUse">
<stop stop-color="#BA9F33"/>
<stop offset="1" stop-color="#E1CE83"/>
</linearGradient>
<linearGradient id="paint13_linear_2_34" x1="23.9744" y1="5.17216" x2="25.6807" y2="5.17216" gradientUnits="userSpaceOnUse">
<stop stop-color="#BA9F33"/>
<stop offset="1" stop-color="#E1CE83"/>
</linearGradient>
<linearGradient id="paint14_linear_2_34" x1="8.65762" y1="28.8544" x2="9.86498" y2="28.8544" gradientUnits="userSpaceOnUse">
<stop stop-color="#BA9F33"/>
<stop offset="1" stop-color="#E1CE83"/>
</linearGradient>
<linearGradient id="paint15_linear_2_34" x1="20.1353" y1="1.14552" x2="21.3426" y2="1.14552" gradientUnits="userSpaceOnUse">
<stop stop-color="#BA9F33"/>
<stop offset="1" stop-color="#E1CE83"/>
</linearGradient>
<linearGradient id="paint16_linear_2_34" x1="7.603" y1="14.9999" x2="22.397" y2="14.9999" gradientUnits="userSpaceOnUse">
<stop stop-color="#BA9F33"/>
<stop offset="1" stop-color="#E1CE83"/>
</linearGradient>
</defs>
</svg>
