<svg width="24" height="22" viewBox="0 0 24 22" fill="none" xmlns="http://www.w3.org/2000/svg">
<g clip-path="url(#clip0_11_351)">
<path d="M23.4437 0L13.1455 7.45057L15.0605 3.05974L23.4437 0Z" fill="#E17726"/>
<path d="M0.580359 0.00880432L8.94108 3.0603L10.7595 7.5087L0.580359 0.00880432ZM19.2993 15.8453L23.851 15.93L22.2602 21.2139L16.7062 19.7187L19.2993 15.8453ZM4.70048 15.8453L7.28395 19.7187L1.7393 21.214L0.158203 15.93L4.70048 15.8453Z" fill="#E27625"/>
<path d="M10.5124 6.3756L10.6984 12.2499L5.13232 12.0023L6.71557 9.6668L6.73564 9.64434L10.5124 6.3756ZM13.4301 6.31006L17.2645 9.64453L17.2844 9.66689L18.8676 12.0024L13.3028 12.2499L13.4301 6.31006ZM7.44711 15.8624L10.4863 18.1778L6.95586 19.8444L7.44711 15.8624ZM16.5536 15.862L17.0346 19.8445L13.514 18.1776L16.5536 15.862Z" fill="#E27625"/>
<path d="M13.5916 17.9595L17.1641 19.651L13.841 21.1952L13.8755 20.1746L13.5916 17.9595ZM10.4072 17.9603L10.1345 20.1579L10.1569 21.194L6.82593 19.651L10.4072 17.9603Z" fill="#D5BFB2"/>
<path d="M9.3757 13.0166L10.3093 14.935L7.13086 14.0245L9.3757 13.0166ZM14.6243 13.0168L16.8797 14.0245L13.6909 14.9347L14.6243 13.0168Z" fill="#233447"/>
<path d="M7.68983 15.8428L7.17608 19.9714L4.42236 15.933L7.68983 15.8428ZM16.3101 15.8428L19.5777 15.933L16.8137 19.9716L16.3101 15.8428ZM18.9479 11.7688L16.5699 14.1385L14.7365 13.3193L13.8587 15.1236L13.2832 12.0208L18.9479 11.7688ZM5.05068 11.7688L10.7165 12.0208L10.1409 15.1236L9.26296 13.3195L7.43924 14.1386L5.05068 11.7688Z" fill="#CC6228"/>
<path d="M4.89062 11.2825L7.58106 13.9519L7.67425 16.5873L4.89062 11.2825ZM19.1122 11.2778L16.3235 16.5919L16.4285 13.9519L19.1122 11.2778ZM10.5851 11.4451L10.6934 12.1116L10.9609 13.7717L10.7889 18.8707L9.97563 14.7746L9.97534 14.7322L10.5851 11.4451ZM13.4136 11.4359L14.025 14.7322L14.0247 14.7746L13.2093 18.881L13.1771 17.8538L13.0499 13.7415L13.4136 11.4359Z" fill="#E27525"/>
<path d="M16.6677 13.8459L16.5767 16.1355L13.7385 18.2977L13.1647 17.9013L13.8078 14.6623L16.6677 13.8459ZM7.34229 13.8459L10.1922 14.6623L10.8353 17.9013L10.2616 18.2977L7.42329 16.1354L7.34229 13.8459Z" fill="#F5841F"/>
<path d="M6.28296 19.1453L9.91408 20.8276L9.89871 20.1092L10.2026 19.8484H13.7964L14.1112 20.1083L14.0879 20.8261L17.6961 19.1495L15.9403 20.5682L13.8174 21.9939H10.1734L8.05183 20.5623L6.28296 19.1453Z" fill="#C0AC9D"/>
<path d="M13.3317 17.7356L13.8451 18.0902L14.1459 20.4373L13.7105 20.0778H10.2909L9.86377 20.4445L10.1548 18.0904L10.6683 17.7356H13.3317Z" fill="#161616"/>
<path d="M22.7638 0.206253L24 3.83231L23.228 7.4987L23.7777 7.91331L23.0338 8.46826L23.5929 8.89048L22.8526 9.54965L23.3071 9.8715L22.1009 11.2489L17.1537 9.84042L17.1109 9.81796L13.5458 6.87748L22.7638 0.206253ZM1.23619 0.206253L10.4543 6.87748L6.88912 9.81796L6.84628 9.84042L1.89909 11.2489L0.692906 9.8715L1.14703 9.54993L0.407156 8.89048L0.965156 8.46872L0.210094 7.91221L0.780563 7.49733L0 3.83249L1.23619 0.206253Z" fill="#763E1A"/>
<path d="M16.9117 9.53241L22.1535 11.0247L23.8565 16.1567H19.3636L16.268 16.1948L18.5193 11.9041L16.9117 9.53241ZM7.08818 9.53241L5.48027 11.9041L7.73186 16.1948L4.63764 16.1567H0.152832L1.84624 11.0247L7.08818 9.53241ZM15.3172 3.03526L13.851 6.90717L13.5399 12.1377L13.4208 13.7771L13.4113 17.9652H10.5884L10.5792 13.785L10.4598 12.1363L10.1486 6.90717L8.68258 3.03526H15.3172Z" fill="#F5841F"/>
</g>
<defs>
<clipPath id="clip0_11_351">
<rect width="24" height="22" fill="white"/>
</clipPath>
</defs>
</svg>
