<svg width="28" height="35" viewBox="0 0 28 35" fill="none" xmlns="http://www.w3.org/2000/svg">
<path d="M26.7575 26.2575L24.5 24V15.25C24.5 9.8775 21.63 5.38 16.625 4.19V3C16.625 1.5475 15.4525 0.375 14 0.375C12.5475 0.375 11.375 1.5475 11.375 3V4.19C6.35253 5.38 3.50003 9.86 3.50003 15.25V24L1.24253 26.2575C0.140029 27.36 0.910029 29.25 2.46753 29.25H25.515C27.09 29.25 27.86 27.36 26.7575 26.2575ZM21 25.75H7.00003V15.25C7.00003 10.91 9.64253 7.375 14 7.375C18.3575 7.375 21 10.91 21 15.25V25.75ZM14 34.5C15.925 34.5 17.5 32.925 17.5 31H10.5C10.5 31.9283 10.8688 32.8185 11.5252 33.4749C12.1815 34.1312 13.0718 34.5 14 34.5Z" fill="#EDEDED"/>
</svg>
