<svg width="42" height="42" viewBox="0 0 42 42" fill="none" xmlns="http://www.w3.org/2000/svg">
<path d="M36.3107 20.9999L38.2427 17.6609C38.4749 17.2592 38.5381 16.7817 38.4183 16.3334C38.2985 15.8852 38.0056 15.5028 37.604 15.2704L34.2615 13.3384V9.48845C34.2615 9.02432 34.0771 8.5792 33.7489 8.25101C33.4207 7.92282 32.9756 7.73845 32.5115 7.73845H28.6632L26.733 4.3977C26.4999 3.9968 26.1183 3.70383 25.6707 3.5822C25.4488 3.52203 25.2171 3.50651 24.9891 3.53655C24.7611 3.56659 24.5413 3.64159 24.3425 3.7572L21 5.6892L17.6575 3.75545C17.2556 3.52339 16.7779 3.46051 16.3296 3.58062C15.8813 3.70074 15.4991 3.99402 15.267 4.39595L13.335 7.73845H9.48674C9.02261 7.73845 8.57749 7.92282 8.2493 8.25101C7.92111 8.5792 7.73674 9.02432 7.73674 9.48845V13.3367L4.39424 15.2687C4.19479 15.3834 4.01998 15.5364 3.87985 15.7189C3.73972 15.9014 3.63702 16.1098 3.57767 16.3321C3.51831 16.5544 3.50347 16.7862 3.53398 17.0143C3.5645 17.2423 3.63978 17.4621 3.75549 17.6609L5.68749 20.9999L3.75549 24.3389C3.52447 24.7411 3.46179 25.2182 3.58112 25.6663C3.70044 26.1144 3.9921 26.4972 4.39249 26.7312L7.73499 28.6632V32.5114C7.73499 32.9756 7.91936 33.4207 8.24755 33.7489C8.57574 34.0771 9.02086 34.2614 9.48499 34.2614H13.335L15.267 37.6039C15.4219 37.8688 15.6431 38.0887 15.9088 38.2422C16.1746 38.3956 16.4757 38.4772 16.7825 38.4789C17.087 38.4789 17.3897 38.3984 17.6592 38.2427L20.9982 36.3107L24.3407 38.2427C24.7426 38.4744 25.2199 38.5373 25.6681 38.4176C26.1162 38.2978 26.4985 38.0052 26.7312 37.6039L28.6615 34.2614H32.5097C32.9739 34.2614 33.419 34.0771 33.7472 33.7489C34.0754 33.4207 34.2597 32.9756 34.2597 32.5114V28.6632L37.6022 26.7312C37.8013 26.6161 37.9758 26.463 38.1157 26.2804C38.2556 26.0979 38.3581 25.8896 38.4174 25.6674C38.4767 25.4453 38.4917 25.2136 38.4614 24.9856C38.4311 24.7577 38.3562 24.5379 38.241 24.3389L36.3107 20.9999ZM16.6232 12.2324C17.3197 12.2327 17.9875 12.5096 18.4798 13.0022C18.972 13.4948 19.2485 14.1628 19.2482 14.8592C19.248 15.5556 18.9711 16.2234 18.4785 16.7157C17.9859 17.208 17.3179 17.4844 16.6215 17.4842C15.9251 17.484 15.2573 17.2071 14.765 16.7145C14.2727 16.2219 13.9963 15.5539 13.9965 14.8574C13.9967 14.161 14.2736 13.4932 14.7662 13.0009C15.2588 12.5086 15.9268 12.2322 16.6232 12.2324ZM17.1482 29.0324L14.3482 26.9342L24.8482 12.9342L27.6482 15.0324L17.1482 29.0324ZM25.3732 29.7324C25.0284 29.7323 24.687 29.6643 24.3684 29.5322C24.0499 29.4002 23.7605 29.2066 23.5167 28.9627C23.273 28.7188 23.0796 28.4293 22.9478 28.1106C22.8159 27.792 22.7481 27.4505 22.7482 27.1057C22.7484 26.7609 22.8164 26.4194 22.9485 26.1009C23.0805 25.7823 23.274 25.4929 23.518 25.2492C23.7619 25.0054 24.0514 24.8121 24.37 24.6802C24.6887 24.5484 25.0302 24.4806 25.375 24.4807C26.0714 24.4809 26.7392 24.7578 27.2315 25.2504C27.7238 25.743 28.0002 26.411 28 27.1074C27.9998 27.8039 27.7229 28.4717 27.2303 28.964C26.7377 29.4562 26.0697 29.7327 25.3732 29.7324Z" fill="url(#paint0_linear_42_110)"/>
<defs>
<linearGradient id="paint0_linear_42_110" x1="3.51855" y1="21" x2="38.4776" y2="21" gradientUnits="userSpaceOnUse">
<stop stop-color="#BA9F33"/>
<stop offset="1" stop-color="#E1CE83"/>
</linearGradient>
</defs>
</svg>
