<svg width="42" height="42" viewBox="0 0 42 42" fill="none" xmlns="http://www.w3.org/2000/svg">
<path d="M35.4373 2.625C34.301 2.62451 33.1953 2.99285 32.2863 3.67464C31.3773 4.35644 30.7141 5.31486 30.3965 6.40584C30.0788 7.49683 30.1239 8.66144 30.5249 9.72462C30.9258 10.7878 31.6611 11.6921 32.62 12.3017L29.1942 24.2919C29.0879 24.2851 28.9814 24.2816 28.8748 24.2812C27.7455 24.28 26.6462 24.6449 25.7418 25.3212L19.4127 20.047C19.7124 19.158 19.7683 18.205 19.5748 17.287C19.3812 16.3691 18.9452 15.5197 18.3121 14.8274C17.679 14.1351 16.872 13.625 15.975 13.3503C15.0779 13.0757 14.1237 13.0463 13.2115 13.2655C12.2993 13.4846 11.4625 13.9441 10.7881 14.5963C10.1137 15.2485 9.6264 16.0694 9.37685 16.9738C9.12731 17.8781 9.12466 18.8328 9.36916 19.7385C9.61367 20.6443 10.0964 21.4679 10.7671 22.1238L7.05178 29.5549C6.88908 29.5394 6.72574 29.5315 6.5623 29.5312C5.30457 29.5296 4.08795 29.979 3.13327 30.7978C2.1786 31.6167 1.54914 32.7506 1.35916 33.9939C1.16918 35.2372 1.43126 36.5074 2.09785 37.574C2.76444 38.6406 3.79134 39.4328 4.99215 39.8068C6.19297 40.1809 7.4881 40.112 8.64247 39.6127C9.79684 39.1134 10.7339 38.2167 11.2836 37.0855C11.8333 35.9543 11.9592 34.6634 11.6385 33.4473C11.3177 32.2311 10.5715 31.1703 9.53536 30.4574L13.0463 23.4364C13.8992 23.6717 14.7977 23.6871 15.6581 23.4811C16.5185 23.2752 17.3128 22.8547 17.9667 22.2588L24.0944 27.3654C23.6783 28.2824 23.5347 29.2997 23.6807 30.296C23.8267 31.2924 24.2562 32.2257 24.9179 32.9848C25.5796 33.7438 26.4457 34.2965 27.4128 34.577C28.38 34.8575 29.4074 34.854 30.3725 34.5668C31.3377 34.2796 32.1999 33.7209 32.8563 32.9573C33.5128 32.1937 33.9358 31.2574 34.0749 30.26C34.214 29.2627 34.0633 28.2464 33.6409 27.3323C33.2184 26.4182 32.542 25.6449 31.6922 25.1046L35.1179 13.1143C35.2236 13.1207 35.3299 13.125 35.4373 13.125C36.8297 13.125 38.165 12.5719 39.1496 11.5873C40.1342 10.6027 40.6873 9.26739 40.6873 7.875C40.6873 6.48261 40.1342 5.14726 39.1496 4.16269C38.165 3.17812 36.8297 2.625 35.4373 2.625ZM6.5623 37.4062C6.04313 37.4062 5.53561 37.2523 5.10393 36.9639C4.67225 36.6754 4.3358 36.2654 4.13712 35.7858C3.93844 35.3061 3.88645 34.7783 3.98774 34.2691C4.08903 33.7599 4.33903 33.2922 4.70615 32.9251C5.07326 32.558 5.54099 32.308 6.05019 32.2067C6.55939 32.1054 7.08719 32.1574 7.56685 32.3561C8.0465 32.5547 8.45647 32.8912 8.74491 33.3229C9.03335 33.7546 9.1873 34.2621 9.1873 34.7812C9.18652 35.4772 8.90971 36.1444 8.41759 36.6365C7.92548 37.1287 7.25826 37.4055 6.5623 37.4062ZM14.4373 21C13.9181 21 13.4106 20.846 12.9789 20.5576C12.5473 20.2692 12.2108 19.8592 12.0121 19.3795C11.8134 18.8999 11.7615 18.3721 11.8627 17.8629C11.964 17.3537 12.214 16.886 12.5811 16.5188C12.9483 16.1517 13.416 15.9017 13.9252 15.8004C14.4344 15.6992 14.9622 15.7511 15.4418 15.9498C15.9215 16.1485 16.3315 16.4849 16.6199 16.9166C16.9083 17.3483 17.0623 17.8558 17.0623 18.375C17.0615 19.071 16.7847 19.7382 16.2926 20.2303C15.8005 20.7224 15.1333 20.9992 14.4373 21ZM28.8748 32.1562C28.3556 32.1562 27.8481 32.0023 27.4164 31.7139C26.9847 31.4254 26.6483 31.0155 26.4496 30.5358C26.2509 30.0561 26.199 29.5283 26.3002 29.0191C26.4015 28.5099 26.6515 28.0422 27.0186 27.6751C27.3858 27.308 27.8535 27.058 28.3627 26.9567C28.8719 26.8554 29.3997 26.9074 29.8793 27.1061C30.359 27.3047 30.769 27.6412 31.0574 28.0729C31.3458 28.5046 31.4998 29.0121 31.4998 29.5312C31.499 30.2272 31.2222 30.8944 30.7301 31.3865C30.238 31.8787 29.5708 32.1555 28.8748 32.1562ZM35.4373 10.5C34.9181 10.5 34.4106 10.346 33.9789 10.0576C33.5472 9.76917 33.2108 9.3592 33.0121 8.87954C32.8134 8.39989 32.7615 7.87209 32.8627 7.36289C32.964 6.85369 33.214 6.38596 33.5811 6.01885C33.9483 5.65173 34.416 5.40173 34.9252 5.30044C35.4344 5.19915 35.9622 5.25114 36.4418 5.44982C36.9215 5.6485 37.3315 5.98495 37.6199 6.41663C37.9083 6.84831 38.0623 7.35582 38.0623 7.875C38.0615 8.57095 37.7847 9.23818 37.2926 9.73029C36.8005 10.2224 36.1333 10.4992 35.4373 10.5Z" fill="url(#paint0_linear_42_69)"/>
<defs>
<linearGradient id="paint0_linear_42_69" x1="1.29883" y1="21.3348" x2="40.6873" y2="21.3348" gradientUnits="userSpaceOnUse">
<stop stop-color="#BA9F33"/>
<stop offset="1" stop-color="#E1CE83"/>
</linearGradient>
</defs>
</svg>
