<svg width="22" height="22" viewBox="0 0 22 22" fill="none" xmlns="http://www.w3.org/2000/svg">
<path d="M13.332 6.02799L11 3.69599L8.668 6.02799L8.052 5.41199L11 2.46399L13.948 5.41199L13.332 6.02799Z" fill="#9E9D9D"/>
<path d="M10.5601 3.07999H11.4401V12.32H10.5601V3.07999Z" fill="#9E9D9D"/>
<path d="M15.4 17.6H6.60003C5.85203 17.6 5.28003 17.028 5.28003 16.28V8.36001C5.28003 7.61201 5.85203 7.04001 6.60003 7.04001H9.68003V7.92001H6.60003C6.33603 7.92001 6.16003 8.09601 6.16003 8.36001V16.28C6.16003 16.544 6.33603 16.72 6.60003 16.72H15.4C15.664 16.72 15.84 16.544 15.84 16.28V8.36001C15.84 8.09601 15.664 7.92001 15.4 7.92001H12.32V7.04001H15.4C16.148 7.04001 16.72 7.61201 16.72 8.36001V16.28C16.72 17.028 16.148 17.6 15.4 17.6Z" fill="#9E9D9D"/>
</svg>
