<svg width="32" height="32" viewBox="0 0 32 32" fill="none" xmlns="http://www.w3.org/2000/svg">
<g clip-path="url(#clip0_2_204)">
<path d="M17.9444 12.6017C16.3744 12.6017 15.0971 13.8789 15.0971 15.4489C15.0971 17.0189 16.3744 18.2962 17.9444 18.2962C19.5144 18.2962 20.7917 17.0189 20.7917 15.4489C20.7917 13.8789 19.5144 12.6017 17.9444 12.6017ZM17.9444 16.7994C17.1997 16.7994 16.5938 16.1935 16.5938 15.4489C16.5938 14.7042 17.1997 14.0983 17.9444 14.0983C18.6892 14.0983 19.295 14.7042 19.295 15.4489C19.295 16.1936 18.6892 16.7994 17.9444 16.7994ZM25.2871 16.9442L24.3201 16.2437C24.3526 15.9806 24.3689 15.7149 24.3689 15.4495C24.3689 15.1879 24.3531 14.9264 24.3217 14.6677L25.2889 13.9669C25.5361 13.8059 25.8732 13.4264 25.7118 12.5896C25.6344 12.189 25.4492 11.7213 25.1903 11.2729C24.4727 10.0298 23.6032 9.48583 22.9089 9.83904L21.8204 10.3255C21.3964 10.0038 20.9378 9.73818 20.4495 9.53173L20.3272 8.35336C20.2902 7.57235 19.3844 7.08959 17.9445 7.08959C16.5088 7.08959 15.6027 7.57102 15.562 8.34945L15.4393 9.53181C14.9509 9.73835 14.4922 10.004 14.0685 10.3256L12.9823 9.84037C12.7193 9.70692 12.222 9.60473 11.5782 10.1629C11.27 10.4301 10.9576 10.8244 10.6988 11.2729C9.98121 12.5156 9.94454 13.5404 10.5973 13.9654L11.5673 14.6681C11.5357 14.9272 11.5199 15.1886 11.5199 15.4496C11.5199 15.7149 11.5362 15.9805 11.5688 16.2435L10.5983 16.9466C9.94463 17.3711 9.9808 18.3964 10.6987 19.6397C10.9576 20.0882 11.27 20.4825 11.5782 20.7497C12.2221 21.3079 12.7194 21.2057 12.9823 21.0721L14.0796 20.582C14.5 20.8996 14.9544 21.1622 15.438 21.3668L15.5619 22.563C15.6024 23.3417 16.5086 23.8231 17.9444 23.8231C19.3843 23.8231 20.2901 23.3403 20.3271 22.5592L20.4508 21.3668C20.9343 21.1622 21.3888 20.8996 21.8091 20.5821L22.9088 21.0735C23.6032 21.4269 24.4726 20.8826 25.1901 19.6398C25.9102 18.3927 25.9451 17.3668 25.2871 16.9442ZM22.7766 14.4783C22.8401 14.7954 22.8722 15.1222 22.8722 15.4495C22.8722 15.7797 22.8393 16.1101 22.7745 16.4315C22.7165 16.7189 22.8317 17.0135 23.069 17.1855L24.2431 18.0361C24.2089 18.2113 24.109 18.5188 23.8939 18.8913C23.6787 19.2639 23.4625 19.5041 23.3278 19.6214L21.9991 19.0275C21.7317 18.908 21.4189 18.9555 21.1992 19.1492C20.7037 19.5855 20.1373 19.9128 19.5156 20.1218C19.2377 20.2152 19.04 20.4622 19.0097 20.7538L18.8595 22.2012C18.6906 22.2591 18.3745 22.3263 17.9444 22.3263C17.514 22.3263 17.1978 22.2591 17.029 22.2011L16.8789 20.7539C16.8486 20.4623 16.6509 20.2152 16.373 20.1218C15.7514 19.9128 15.185 19.5855 14.6893 19.1491C14.4695 18.9555 14.1572 18.908 13.8896 19.0275L12.5606 19.6211C12.4261 19.5039 12.2097 19.2637 11.9947 18.8912C11.7795 18.5185 11.6797 18.211 11.6455 18.0358L12.8195 17.1851C13.0568 17.0132 13.1719 16.7186 13.1141 16.4313C13.0494 16.1099 13.0164 15.7795 13.0164 15.4494C13.0164 15.1232 13.0487 14.7963 13.1121 14.4779C13.1693 14.1911 13.0542 13.8972 12.8173 13.7255L11.6454 12.8767C11.6796 12.7015 11.7794 12.3939 11.9947 12.0212C12.2097 11.6488 12.426 11.4085 12.5605 11.2913L13.8794 11.8806C14.1477 12.0003 14.4608 11.9522 14.6806 11.7578C15.1784 11.3172 15.7482 10.9872 16.3741 10.777C16.6521 10.6837 16.8499 10.4365 16.8801 10.1449L17.0289 8.71147C17.1977 8.65352 17.5139 8.58625 17.9443 8.58625C18.3744 8.58625 18.6905 8.65344 18.8594 8.71139L19.0081 10.1449C19.0384 10.4365 19.2363 10.6837 19.5144 10.777C20.14 10.9871 20.7099 11.317 21.208 11.7577C21.4278 11.9522 21.741 12.0002 22.0091 11.8804L23.3278 11.2911C23.4623 11.4084 23.6787 11.6486 23.8938 12.0213C24.1089 12.3937 24.2088 12.7011 24.243 12.8763L23.0712 13.7255C22.8344 13.8972 22.7192 14.1913 22.7766 14.4783ZM26.7631 3.8248H9.12579C6.28039 3.8248 3.98518 6.13248 3.98518 8.97796V23.563L1.57389 25.7083V8.79795C1.57381 4.75564 4.90346 1.49666 8.94586 1.49666H22.9154C23.7008 1.49666 24.4509 1.72981 25.0848 2.19893C25.4169 2.44479 25.8855 2.36738 26.1315 2.03521C26.3774 1.70303 26.3074 1.24555 25.9752 0.999686C25.0817 0.338411 24.0236 0 22.9153 0H8.94586C4.0783 0 0.0771484 3.93039 0.0771484 8.79795V27.4044C0.0771484 27.7008 0.272629 27.9694 0.54394 28.0891C0.815168 28.2086 1.15158 28.157 1.37059 27.9571L3.98518 25.5892V31.2517C3.98518 31.5481 4.15031 31.8167 4.42162 31.9363C4.51865 31.9791 4.61652 32 4.71862 32C4.9018 32 5.08015 31.9327 5.22084 31.8044L9.56921 27.8348C9.7045 27.7113 9.81941 27.6035 9.92026 27.5094C10.1284 27.3152 10.3247 27.1318 10.3898 27.1063C10.4509 27.0822 10.7089 27.092 10.982 27.0956C11.1297 27.0976 11.3011 27.1062 11.503 27.1062H26.7632C29.6086 27.1062 31.9229 24.7786 31.9229 21.9331V8.97796C31.9227 6.13248 29.6084 3.8248 26.7631 3.8248ZM30.4261 21.9331C30.4261 23.9534 28.7832 25.6095 26.763 25.6095H11.5029C11.3088 25.6095 11.144 25.6009 11.0019 25.5991C9.89881 25.5843 9.72171 25.6504 8.89854 26.4183C8.80118 26.5092 8.69932 26.6118 8.5687 26.731L5.48184 29.5555V23.8939C5.48184 23.8933 5.48184 23.8927 5.48184 23.892V8.97796C5.48175 6.95772 7.10563 5.32146 9.12579 5.32146H26.7631C28.7832 5.32146 30.4262 6.95772 30.4262 8.97796V21.9331H30.4261Z" fill="#EDEDED"/>
</g>
<defs>
<clipPath id="clip0_2_204">
<rect width="32" height="32" fill="white"/>
</clipPath>
</defs>
</svg>
