<svg width="24" height="24" viewBox="0 0 24 24" fill="none" xmlns="http://www.w3.org/2000/svg">
<path d="M21.75 5.96017C21.0328 6.26954 20.2523 6.4922 19.4484 6.57892C20.2831 6.08306 20.9081 5.2997 21.2062 4.37579C20.423 4.8417 19.565 5.16841 18.6703 5.34142C18.2963 4.94163 17.8441 4.62315 17.3416 4.40581C16.8392 4.18847 16.2974 4.07693 15.75 4.07813C13.5351 4.07813 11.7539 5.87345 11.7539 8.07657C11.7539 8.38595 11.7914 8.69532 11.8523 8.99298C8.53593 8.81954 5.57812 7.23517 3.61171 4.80938C3.25341 5.42137 3.06565 6.1182 3.06796 6.82735C3.06796 8.21485 3.77343 9.43829 4.84921 10.1578C4.21524 10.1329 3.59611 9.9586 3.04218 9.64923V9.69845C3.04218 11.6414 4.41562 13.2516 6.24609 13.6219C5.9024 13.7112 5.54884 13.7568 5.19374 13.7578C4.93359 13.7578 4.68749 13.732 4.43906 13.6969C4.94531 15.2813 6.41952 16.432 8.17499 16.4695C6.80156 17.5453 5.08124 18.1781 3.21328 18.1781C2.87812 18.1781 2.56874 18.1664 2.24765 18.1289C4.01952 19.2656 6.12187 19.9219 8.38593 19.9219C15.7359 19.9219 19.7578 13.8328 19.7578 8.54767C19.7578 8.37423 19.7578 8.20079 19.7461 8.02735C20.5242 7.45782 21.2062 6.75235 21.75 5.96017Z" fill="#EDEDED"/>
</svg>
