<svg width="36" height="36" viewBox="0 0 36 36" fill="none" xmlns="http://www.w3.org/2000/svg">
<path d="M18 0.5C8.51325 0.5 0.5 8.51325 0.5 18C0.5 27.4867 8.51325 35.5 18 35.5C27.4867 35.5 35.5 27.4867 35.5 18C35.5 8.51325 27.4867 0.5 18 0.5ZM18 9.25C21.0222 9.25 23.25 11.476 23.25 14.5C23.25 17.524 21.0222 19.75 18 19.75C14.9795 19.75 12.75 17.524 12.75 14.5C12.75 11.476 14.9795 9.25 18 9.25ZM9.0645 26.351C10.6342 24.041 13.2522 22.501 16.25 22.501H19.75C22.7495 22.501 25.3658 24.041 26.9355 26.351C24.699 28.745 21.5263 30.25 18 30.25C14.4738 30.25 11.301 28.745 9.0645 26.351Z" fill="url(#paint0_linear_34_32)"/>
<defs>
<linearGradient id="paint0_linear_34_32" x1="0.5" y1="18" x2="35.5" y2="18" gradientUnits="userSpaceOnUse">
<stop stop-color="#BA9F33"/>
<stop offset="1" stop-color="#E1CE83"/>
</linearGradient>
</defs>
</svg>
